<svg width="120" height="91" viewBox="0 0 120 91" fill="none" xmlns="http://www.w3.org/2000/svg">
<path d="M4.40643 57.6787C7.97226 64.7799 11.2861 72.498 10.1017 80.0273C10.0009 80.6947 10.5175 81.2991 11.1979 81.2991H16.1119C16.4647 81.2991 16.7923 81.1354 16.9939 80.8584C22.9538 72.8003 31.0179 70.2822 31.0179 70.2822C38.3007 68.0914 46.1506 66.1524 51.1907 66.1524C60.5903 66.1524 62.8333 73.8578 63.3373 76.8042C63.4504 77.4589 64.0174 77.9373 64.6854 77.9373C65.2903 77.9373 65.8698 77.6855 66.273 77.2323L70.6454 72.3974C71.0864 71.919 71.88 72.1582 71.981 72.7877C73.329 81.2362 79.982 89.949 81.242 90.6288C81.3554 90.6917 81.4815 90.7169 81.6075 90.7169H101.15C101.553 90.7169 101.881 90.4147 101.919 90.0244C102.612 82.6211 113.977 71.9316 118.324 68.0788C119.395 67.1345 120 65.7873 120 64.3645V55.0347C120 54.9088 119.975 54.7956 119.924 54.6821L108.836 32.5224C108.761 32.3588 108.622 32.2328 108.458 32.1573C99.3736 28.0149 99.8649 17.678 100.041 15.8019C100.054 15.6131 100.004 15.4116 99.8902 15.2605L97.2189 11.7855C96.9669 11.4581 96.4882 11.3826 96.1479 11.6344L94.9258 12.5158C94.9258 7.1521 92.6957 2.55649 91.4481 0.39088C91.1205 -0.175703 90.2888 -0.112749 90.0495 0.491606L87.5042 7.06397C87.4665 7.1521 87.4538 7.25283 87.4538 7.34096C87.4412 12.7928 86.5341 16.4567 85.5638 18.8111C84.6946 20.9264 82.1116 21.707 80.1961 20.4605C76.4287 18.0053 70.3176 14.0141 68.226 12.6543C67.8354 12.4024 67.7599 11.8736 68.0496 11.5085L73.934 4.36955C74.3497 3.86592 73.9844 3.09789 73.329 3.09789H55.0085C54.8069 3.09789 54.6179 3.17343 54.4793 3.31193L48.4692 8.97776C48.1541 9.27994 48.1414 9.78357 48.4564 10.0857L50.0442 11.6848C44.9284 13.3845 41.4887 9.93466 40.2539 8.386C39.9641 8.03345 39.4349 7.99568 39.1071 8.31045L25.9652 20.9641C25.8518 21.0775 25.7636 21.216 25.7384 21.3796C24.3524 29.3747 8.94247 34.8139 4.11662 36.3248C3.22202 36.6018 2.54161 37.3321 2.32741 38.2386L0.0719865 47.6313C-0.0666148 48.2231 -0.00361418 48.8401 0.248388 49.3814C1.4832 52.0129 2.95741 54.7954 4.40643 57.6787Z" fill="#C99B67"/>
</svg>
